<svg width="394" height="107" viewBox="0 0 394 107" fill="none" xmlns="http://www.w3.org/2000/svg">
<path d="M96.1317 0C112.409 0 148.627 7.32475 163.277 36.624C177.927 65.9235 191.763 95.6305 196.85 106.821H138.861C124.619 71.2143 91.2501 3.6629 71.7167 18.3125C47.3 36.6246 62.559 85.4571 96.1317 106.821H47.2997C28.9875 105.804 -5.80544 92.1711 1.51942 45.7803C7.62406 18.3121 28.987 0 47.2997 0H96.1317Z" fill="#FFF8E9"/>
<path d="M346.399 0C364.712 7.88297e-05 386.075 18.3122 392.18 45.7803C399.504 92.171 364.712 105.804 346.399 106.821H297.566C331.139 85.4571 346.399 36.6247 321.982 18.3125C302.449 3.66277 269.08 71.2143 254.838 106.821H196.85C201.936 95.6305 215.772 65.9235 230.422 36.624C245.071 7.32508 281.288 0.000135037 297.566 0H346.399Z" fill="#FFF8E9"/>
</svg>
