<svg xmlns="http://www.w3.org/2000/svg" width="96" height="96" viewBox="0 0 96 96" fill="none">
  <g clip-path="url(#clip0_9854_15550)">
    <path d="M48 26.1817C48 14.1319 57.7683 4.36353 69.8182 4.36353C81.868 4.36353 91.6364 14.1319 91.6364 26.1817V34.909H82.9091V26.1817C82.9091 18.9518 77.0481 13.0908 69.8182 13.0908C62.5883 13.0908 56.7273 18.9518 56.7273 26.1817V34.909H48V26.1817Z" fill="#256EF4"/>
    <g filter="url(#filter0_din_9854_15550)">
      <path d="M8.72725 48C8.72725 38.3601 16.5419 30.5454 26.1818 30.5454H69.8182C79.458 30.5454 87.2727 38.3601 87.2727 48V74.1818C87.2727 83.8217 79.458 91.6363 69.8182 91.6363H26.1818C16.5419 91.6363 8.72725 83.8217 8.72725 74.1818V48Z" fill="url(#paint0_linear_9854_15550)" shape-rendering="crispEdges"/>
      <path d="M8.72725 48C8.72725 38.3601 16.5419 30.5454 26.1818 30.5454H69.8182C79.458 30.5454 87.2727 38.3601 87.2727 48V74.1818C87.2727 83.8217 79.458 91.6363 69.8182 91.6363H26.1818C16.5419 91.6363 8.72725 83.8217 8.72725 74.1818V48Z" fill="#256EF4" fill-opacity="0.25" shape-rendering="crispEdges"/>
      <path d="M26.1814 30.7632H69.8181C79.3373 30.7632 87.0542 38.4803 87.0544 47.9995V74.1821C87.0542 83.7013 79.3373 91.4185 69.8181 91.4185H26.1814C16.6623 91.4182 8.94521 83.7012 8.94502 74.1821V47.9995C8.94526 38.4805 16.6623 30.7634 26.1814 30.7632Z" stroke="url(#paint1_linear_9854_15550)" stroke-width="0.436364" shape-rendering="crispEdges"/>
    </g>
    <path opacity="0.8" d="M48 50.1819C51.615 50.1819 54.5455 53.1124 54.5455 56.7273C54.5455 59.5762 52.7226 61.9921 50.1818 62.8914V72.0001C50.1818 73.2051 49.205 74.1819 48 74.1819C46.795 74.1819 45.8182 73.2051 45.8182 72.0001V62.8914C43.2774 61.9921 41.4546 59.5762 41.4546 56.7273C41.4546 53.1124 44.3851 50.1819 48 50.1819Z" fill="url(#paint2_linear_9854_15550)"/>
  </g>
  <defs>
    <filter id="filter0_din_9854_15550" x="-13.0909" y="8.72723" width="122.182" height="104.727" filterUnits="userSpaceOnUse" color-interpolation-filters="sRGB">
      <feFlood flood-opacity="0" result="BackgroundImageFix"/>
      <feColorMatrix in="SourceAlpha" type="matrix" values="0 0 0 0 0 0 0 0 0 0 0 0 0 0 0 0 0 0 127 0" result="hardAlpha"/>
      <feOffset dy="2.18182"/>
      <feGaussianBlur stdDeviation="4.36364"/>
      <feComposite in2="hardAlpha" operator="out"/>
      <feColorMatrix type="matrix" values="0 0 0 0 0 0 0 0 0 0 0 0 0 0 0 0 0 0 0.12 0"/>
      <feBlend mode="normal" in2="BackgroundImageFix" result="effect1_dropShadow_9854_15550"/>
      <feBlend mode="normal" in="SourceGraphic" in2="BackgroundImageFix" result="shape"/>
      <feColorMatrix in="SourceAlpha" type="matrix" values="0 0 0 0 0 0 0 0 0 0 0 0 0 0 0 0 0 0 127 0" result="hardAlpha"/>
      <feOffset dy="2.18182"/>
      <feGaussianBlur stdDeviation="3.27273"/>
      <feComposite in2="hardAlpha" operator="arithmetic" k2="-1" k3="1"/>
      <feColorMatrix type="matrix" values="0 0 0 0 1 0 0 0 0 1 0 0 0 0 1 0 0 0 0.1 0"/>
      <feBlend mode="normal" in2="shape" result="effect2_innerShadow_9854_15550"/>
      <feTurbulence type="fractalNoise" baseFrequency="4.5833334922790527 4.5833334922790527" stitchTiles="stitch" numOctaves="3" result="noise" seed="4151"/>
      <feColorMatrix in="noise" type="luminanceToAlpha" result="alphaNoise"/>
      <feComponentTransfer in="alphaNoise" result="coloredNoise1">
        <feFuncA type="discrete" tableValues="0 0 0 0 0 0 0 1 1 1 1 1 1 1 1 1 1 1 1 1 1 1 1 1 1 1 1 1 1 1 1 1 1 1 1 1 1 1 1 1 1 1 1 0 0 0 0 0 0 0 0 0 0 0 0 0 0 0 0 0 0 0 0 0 0 0 0 0 0 0 0 0 0 0 0 0 0 0 0 0 0 0 0 0 0 0 0 0 0 0 0 0 0 0 0 0 0 0 0 0 "/>
      </feComponentTransfer>
      <feComposite operator="in" in2="effect2_innerShadow_9854_15550" in="coloredNoise1" result="noise1Clipped"/>
      <feFlood flood-color="rgba(0, 0, 0, 0.05)" result="color1Flood"/>
      <feComposite operator="in" in2="noise1Clipped" in="color1Flood" result="color1"/>
      <feMerge result="effect3_noise_9854_15550">
        <feMergeNode in="effect2_innerShadow_9854_15550"/>
        <feMergeNode in="color1"/>
      </feMerge>
      <feBlend mode="normal" in="effect3_noise_9854_15550" in2="effect1_dropShadow_9854_15550" result="effect3_noise_9854_15550"/>
    </filter>
    <linearGradient id="paint0_linear_9854_15550" x1="48" y1="28" x2="48" y2="91.6363" gradientUnits="userSpaceOnUse">
  <stop stop-color="white" stop-opacity="0.1"/>
  <stop offset="1" stop-color="white" stop-opacity="0"/>
</linearGradient>
<linearGradient id="paint1_linear_9854_15550" x1="48" y1="30.5454" x2="48" y2="91.6363" gradientUnits="userSpaceOnUse">
  <stop stop-color="white" stop-opacity="0.15"/>
  <stop offset="1" stop-color="white" stop-opacity="0"/>
</linearGradient>
<linearGradient id="paint2_linear_9854_15550" x1="48" y1="58.9092" x2="48" y2="74.1819" gradientUnits="userSpaceOnUse">
  <stop stop-color="white"/>
  <stop offset="1" stop-color="white" stop-opacity="0.3"/>
</linearGradient>
<clipPath id="clip0_9854_15550">
  <rect width="96" height="96" fill="white"/>
</clipPath>
</defs>
</svg>