<svg xmlns="http://www.w3.org/2000/svg" width="96" height="96" viewBox="0 0 96 96" fill="none">
  <g clip-path="url(#clip0_9856_1855)">
    <path d="M4.36363 43.6365C4.36363 38.8165 8.27097 34.9092 13.0909 34.9092H31.8724C34.2137 34.9092 36.4567 35.8499 38.0976 37.5199L45.4979 45.0517C47.1015 46.6837 48 48.8802 48 51.1682V82.9092C48 87.7291 44.0927 91.6365 39.2727 91.6365H13.0909C8.27097 91.6365 4.36363 87.7291 4.36363 82.9092V43.6365Z" fill="#256EF4"/>
    <g filter="url(#filter0_din_9856_1855)">
      <path d="M30.5455 21.8183C30.5455 12.1784 38.3601 4.36377 48 4.36377H66.6402C71.4529 4.36377 76.0521 6.35095 79.3506 9.85559L86.8922 17.8686C89.9396 21.1063 91.6364 25.385 91.6364 29.8313V69.8183C91.6364 79.4582 83.8217 87.2729 74.1818 87.2729H48C38.3601 87.2729 30.5455 79.4582 30.5455 69.8183V21.8183Z" fill="url(#paint0_linear_9856_1855)" shape-rendering="crispEdges"/>
      <path d="M30.5455 21.8183C30.5455 12.1784 38.3601 4.36377 48 4.36377H66.6402C71.4529 4.36377 76.0521 6.35095 79.3506 9.85559L86.8922 17.8686C89.9396 21.1063 91.6364 25.385 91.6364 29.8313V69.8183C91.6364 79.4582 83.8217 87.2729 74.1818 87.2729H48C38.3601 87.2729 30.5455 79.4582 30.5455 69.8183V21.8183Z" fill="#256EF4" fill-opacity="0.25" shape-rendering="crispEdges"/>
      <path d="M47.9996 4.58154H66.6402C71.3928 4.58154 75.9347 6.54454 79.192 10.0054L86.733 18.0181C89.7422 21.2154 91.4185 25.4408 91.4185 29.8315V69.8179C91.4185 79.3371 83.7014 87.054 74.1822 87.0542H47.9996C38.4804 87.054 30.7632 79.3371 30.7632 69.8179V21.8179C30.7635 12.2988 38.4805 4.58178 47.9996 4.58154Z" stroke="url(#paint1_linear_9856_1855)" stroke-width="0.436364" shape-rendering="crispEdges"/>
    </g>
    <g opacity="0.8">
      <path d="M76.3637 70.9091C78.1711 70.9091 79.6364 72.3743 79.6364 74.1818C79.6364 75.9893 78.1711 77.4545 76.3637 77.4545H45.8182C44.0107 77.4545 42.5455 75.9893 42.5455 74.1818C42.5455 72.3743 44.0107 70.9091 45.8182 70.9091H76.3637Z" fill="url(#paint2_linear_9856_1855)"/>
      <path d="M76.3637 53.4545C78.1711 53.4545 79.6364 54.9198 79.6364 56.7273C79.6364 58.5347 78.1711 60 76.3637 60H45.8182C44.0107 60 42.5455 58.5347 42.5455 56.7273C42.5455 54.9198 44.0107 53.4545 45.8182 53.4545H76.3637Z" fill="url(#paint3_linear_9856_1855)"/>
      <path d="M76.3637 36C78.1711 36 79.6364 37.4652 79.6364 39.2727C79.6364 41.0802 78.1711 42.5455 76.3637 42.5455H45.8182C44.0107 42.5455 42.5455 41.0802 42.5455 39.2727C42.5455 37.4652 44.0107 36 45.8182 36H76.3637Z" fill="url(#paint4_linear_9856_1855)"/>
    </g>
  </g>
  <defs>
    <filter id="filter0_din_9856_1855" x="8.72729" y="-17.4544" width="104.727" height="126.546" filterUnits="userSpaceOnUse" color-interpolation-filters="sRGB">
      <feFlood flood-opacity="0" result="BackgroundImageFix"/>
      <feColorMatrix in="SourceAlpha" type="matrix" values="0 0 0 0 0 0 0 0 0 0 0 0 0 0 0 0 0 0 127 0" result="hardAlpha"/>
      <feOffset dy="2.18182"/>
      <feGaussianBlur stdDeviation="4.36364"/>
      <feComposite in2="hardAlpha" operator="out"/>
      <feColorMatrix type="matrix" values="0 0 0 0 0 0 0 0 0 0 0 0 0 0 0 0 0 0 0.12 0"/>
      <feBlend mode="normal" in2="BackgroundImageFix" result="effect1_dropShadow_9856_1855"/>
      <feBlend mode="normal" in="SourceGraphic" in2="BackgroundImageFix" result="shape"/>
      <feColorMatrix in="SourceAlpha" type="matrix" values="0 0 0 0 0 0 0 0 0 0 0 0 0 0 0 0 0 0 127 0" result="hardAlpha"/>
      <feOffset dy="2.18182"/>
      <feGaussianBlur stdDeviation="3.27273"/>
      <feComposite in2="hardAlpha" operator="arithmetic" k2="-1" k3="1"/>
      <feColorMatrix type="matrix" values="0 0 0 0 1 0 0 0 0 1 0 0 0 0 1 0 0 0 0.1 0"/>
      <feBlend mode="normal" in2="shape" result="effect2_innerShadow_9856_1855"/>
      <feTurbulence type="fractalNoise" baseFrequency="4.5833330154418945 4.5833330154418945" stitchTiles="stitch" numOctaves="3" result="noise" seed="4151"/>
      <feColorMatrix in="noise" type="luminanceToAlpha" result="alphaNoise"/>
      <feComponentTransfer in="alphaNoise" result="coloredNoise1">
        <feFuncA type="discrete" tableValues="0 0 0 0 0 0 0 1 1 1 1 1 1 1 1 1 1 1 1 1 1 1 1 1 1 1 1 1 1 1 1 1 1 1 1 1 1 1 1 1 1 1 1 0 0 0 0 0 0 0 0 0 0 0 0 0 0 0 0 0 0 0 0 0 0 0 0 0 0 0 0 0 0 0 0 0 0 0 0 0 0 0 0 0 0 0 0 0 0 0 0 0 0 0 0 0 0 0 0 0 "/>
      </feComponentTransfer>
      <feComposite operator="in" in2="effect2_innerShadow_9856_1855" in="coloredNoise1" result="noise1Clipped"/>
      <feFlood flood-color="rgba(0, 0, 0, 0.05)" result="color1Flood"/>
      <feComposite operator="in" in2="noise1Clipped" in="color1Flood" result="color1"/>
      <feMerge result="effect3_noise_9856_1855">
        <feMergeNode in="effect2_innerShadow_9856_1855"/>
        <feMergeNode in="color1"/>
      </feMerge>
      <feBlend mode="normal" in="effect3_noise_9856_1855" in2="effect1_dropShadow_9856_1855" result="effect3_noise_9856_1855"/>
    </filter>
    <linearGradient id="paint0_linear_9856_1855" x1="61.0909" y1="5.45468" x2="61.0909" y2="87.2729" gradientUnits="userSpaceOnUse">
  <stop stop-color="white" stop-opacity="0.1"/>
  <stop offset="1" stop-color="white" stop-opacity="0"/>
</linearGradient>
<linearGradient id="paint1_linear_9856_1855" x1="61.0909" y1="4.36377" x2="61.0909" y2="87.2729" gradientUnits="userSpaceOnUse">
  <stop stop-color="white" stop-opacity="0.15"/>
  <stop offset="1" stop-color="white" stop-opacity="0"/>
</linearGradient>
<linearGradient id="paint2_linear_9856_1855" x1="61.0909" y1="51.0744" x2="61.0909" y2="77.4545" gradientUnits="userSpaceOnUse">
  <stop stop-color="white"/>
  <stop offset="1" stop-color="white" stop-opacity="0.3"/>
</linearGradient>
<linearGradient id="paint3_linear_9856_1855" x1="61.0909" y1="51.0744" x2="61.0909" y2="77.4545" gradientUnits="userSpaceOnUse">
  <stop stop-color="white"/>
  <stop offset="1" stop-color="white" stop-opacity="0.3"/>
</linearGradient>
<linearGradient id="paint4_linear_9856_1855" x1="61.0909" y1="51.0744" x2="61.0909" y2="77.4545" gradientUnits="userSpaceOnUse">
  <stop stop-color="white"/>
  <stop offset="1" stop-color="white" stop-opacity="0.3"/>
</linearGradient>
<clipPath id="clip0_9856_1855">
  <rect width="96" height="96" fill="white"/>
</clipPath>
</defs>
</svg>