<svg xmlns="http://www.w3.org/2000/svg" width="96" height="96" viewBox="0 0 96 96" fill="none">
  <g clip-path="url(#clip0_9854_15914)">
    <path d="M37.6206 52.2087C39.3247 50.5046 42.0876 50.5046 43.7917 52.2087C45.4958 53.9128 45.4958 56.6758 43.7917 58.3799L16.0217 86.1499C14.3176 87.854 11.5547 87.854 9.85059 86.1499C8.14648 84.4458 8.14648 81.6829 9.85059 79.9788L37.6206 52.2087Z" fill="#256EF4"/>
    <foreignObject x="-6.67572e-05" y="-17.4544" width="113.454" height="113.454"><div xmlns="http://www.w3.org/1999/xhtml" style="backdrop-filter:blur(10.91px);clip-path:url(#bgblur_1_9854_15914_clip_path);height:100%;width:100%"></div></foreignObject><g filter="url(#filter0_din_9854_15914)" data-figma-bg-blur-radius="21.8182">
      <path d="M91.6363 39.2729C91.6363 58.5526 76.007 74.182 56.7272 74.182C37.4474 74.182 21.8181 58.5526 21.8181 39.2729C21.8181 19.9931 37.4474 4.36377 56.7272 4.36377C76.007 4.36377 91.6363 19.9931 91.6363 39.2729Z" fill="url(#paint0_linear_9854_15914)" shape-rendering="crispEdges"/>
      <path d="M91.6363 39.2729C91.6363 58.5526 76.007 74.182 56.7272 74.182C37.4474 74.182 21.8181 58.5526 21.8181 39.2729C21.8181 19.9931 37.4474 4.36377 56.7272 4.36377C76.007 4.36377 91.6363 19.9931 91.6363 39.2729Z" fill="#256EF4" fill-opacity="0.25" shape-rendering="crispEdges"/>
      <path d="M56.7273 4.58154C75.8865 4.58159 91.4177 20.1137 91.4177 39.2729C91.4177 58.4321 75.8865 73.9633 56.7273 73.9634C37.5681 73.9634 22.0359 58.4322 22.0359 39.2729C22.0359 20.1137 37.568 4.58154 56.7273 4.58154Z" stroke="url(#paint1_linear_9854_15914)" stroke-width="0.436364" shape-rendering="crispEdges"/>
    </g>
  </g>
  <defs>
    <filter id="filter0_din_9854_15914" x="-6.67572e-05" y="-17.4544" width="113.454" height="113.454" filterUnits="userSpaceOnUse" color-interpolation-filters="sRGB">
      <feFlood flood-opacity="0" result="BackgroundImageFix"/>
      <feColorMatrix in="SourceAlpha" type="matrix" values="0 0 0 0 0 0 0 0 0 0 0 0 0 0 0 0 0 0 127 0" result="hardAlpha"/>
      <feOffset dy="2.18182"/>
      <feGaussianBlur stdDeviation="4.36364"/>
      <feComposite in2="hardAlpha" operator="out"/>
      <feColorMatrix type="matrix" values="0 0 0 0 0 0 0 0 0 0 0 0 0 0 0 0 0 0 0.12 0"/>
      <feBlend mode="normal" in2="BackgroundImageFix" result="effect1_dropShadow_9854_15914"/>
      <feBlend mode="normal" in="SourceGraphic" in2="BackgroundImageFix" result="shape"/>
      <feColorMatrix in="SourceAlpha" type="matrix" values="0 0 0 0 0 0 0 0 0 0 0 0 0 0 0 0 0 0 127 0" result="hardAlpha"/>
      <feOffset dy="2.18182"/>
      <feGaussianBlur stdDeviation="3.27273"/>
      <feComposite in2="hardAlpha" operator="arithmetic" k2="-1" k3="1"/>
      <feColorMatrix type="matrix" values="0 0 0 0 1 0 0 0 0 1 0 0 0 0 1 0 0 0 0.1 0"/>
      <feBlend mode="normal" in2="shape" result="effect2_innerShadow_9854_15914"/>
      <feTurbulence type="fractalNoise" baseFrequency="4.5833330154418945 4.5833330154418945" stitchTiles="stitch" numOctaves="3" result="noise" seed="4151"/>
      <feColorMatrix in="noise" type="luminanceToAlpha" result="alphaNoise"/>
      <feComponentTransfer in="alphaNoise" result="coloredNoise1">
        <feFuncA type="discrete" tableValues="0 0 0 0 0 0 0 1 1 1 1 1 1 1 1 1 1 1 1 1 1 1 1 1 1 1 1 1 1 1 1 1 1 1 1 1 1 1 1 1 1 1 1 0 0 0 0 0 0 0 0 0 0 0 0 0 0 0 0 0 0 0 0 0 0 0 0 0 0 0 0 0 0 0 0 0 0 0 0 0 0 0 0 0 0 0 0 0 0 0 0 0 0 0 0 0 0 0 0 0 "/>
      </feComponentTransfer>
      <feComposite operator="in" in2="effect2_innerShadow_9854_15914" in="coloredNoise1" result="noise1Clipped"/>
      <feFlood flood-color="rgba(0, 0, 0, 0.05)" result="color1Flood"/>
      <feComposite operator="in" in2="noise1Clipped" in="color1Flood" result="color1"/>
      <feMerge result="effect3_noise_9854_15914">
        <feMergeNode in="effect2_innerShadow_9854_15914"/>
        <feMergeNode in="color1"/>
      </feMerge>
      <feBlend mode="normal" in="effect3_noise_9854_15914" in2="effect1_dropShadow_9854_15914" result="effect3_noise_9854_15914"/>
    </filter>
    <clipPath id="bgblur_1_9854_15914_clip_path" transform="translate(6.67572e-05 17.4544)"><path d="M91.6363 39.2729C91.6363 58.5526 76.007 74.182 56.7272 74.182C37.4474 74.182 21.8181 58.5526 21.8181 39.2729C21.8181 19.9931 37.4474 4.36377 56.7272 4.36377C76.007 4.36377 91.6363 19.9931 91.6363 39.2729Z"/>
  </clipPath><linearGradient id="paint0_linear_9854_15914" x1="56.7272" y1="1.45468" x2="56.7272" y2="74.182" gradientUnits="userSpaceOnUse">
  <stop stop-color="white" stop-opacity="0.1"/>
  <stop offset="1" stop-color="white" stop-opacity="0"/>
</linearGradient>
<linearGradient id="paint1_linear_9854_15914" x1="56.7272" y1="4.36377" x2="56.7272" y2="74.182" gradientUnits="userSpaceOnUse">
  <stop stop-color="white" stop-opacity="0.15"/>
  <stop offset="1" stop-color="white" stop-opacity="0"/>
</linearGradient>
<clipPath id="clip0_9854_15914">
  <rect width="96" height="96" fill="white"/>
</clipPath>
</defs>
</svg>