<svg width="16" height="16" viewBox="0 0 16 16" fill="none" xmlns="http://www.w3.org/2000/svg">
<path d="M13.3625 6.813L9.72738 7.46995C9.04853 6.66701 7.34921 4.61878 6.07035 3.11217C4.99178 1.84153 3.94126 1.63421 3.17887 1.74931C3.04198 1.78126 2.91068 1.81224 2.78558 1.84206C2.90563 1.80319 3.03728 1.77069 3.17887 1.74931C5.78966 1.13996 10.4303 0.17778 12.7275 0.17778C15.7494 0.17778 16.3188 2.87128 15.8589 4.68885C15.491 6.1429 14.0414 6.7108 13.3625 6.813Z" fill="url(#paint0_linear_1947_3107)"/>
<path d="M6.25354 11.2943L7.53747 7.82033C8.57178 7.63121 11.1498 7.171 13.093 6.81173C15.0363 6.45247 15.6224 5.47843 15.8471 4.73388C15.1164 7.20967 13.5278 11.9494 12.3245 14.0462C10.8203 16.6672 8.20076 15.8203 6.85325 14.5168C5.77525 13.4739 6.00428 11.9339 6.25354 11.2943Z" fill="url(#paint1_linear_1947_3107)"/>
<path d="M5.95322 2.88942L8.29535 5.7596C7.93995 6.74917 7.06307 9.1936 6.39876 11.0548C5.73445 12.916 6.28487 13.9122 6.81616 14.4802C5.04126 12.6058 1.73654 8.853 0.526599 6.75997C-0.985821 4.14368 1.06114 2.30273 2.86485 1.79122C4.30782 1.38201 5.525 2.35285 5.95322 2.88942Z" fill="url(#paint2_linear_1947_3107)"/>
<defs>
<linearGradient id="paint0_linear_1947_3107" x1="7.98088" y1="0.973091" x2="16.506" y2="9.1265" gradientUnits="userSpaceOnUse">
<stop stop-color="#CBB1FB"/>
<stop offset="0.663462" stop-color="#256EF4"/>
</linearGradient>
<linearGradient id="paint1_linear_1947_3107" x1="0.324651" y1="8.81219" x2="15.3595" y2="-0.150529" gradientUnits="userSpaceOnUse">
<stop offset="0.221154" stop-color="#0B50D0"/>
<stop offset="0.798077" stop-color="#F2ECFE"/>
</linearGradient>
<linearGradient id="paint2_linear_1947_3107" x1="6.07352" y1="3.58278" x2="4.78369" y2="13.1382" gradientUnits="userSpaceOnUse">
<stop stop-color="#4D08D0"/>
<stop offset="0.557692" stop-color="#256EF4"/>
</linearGradient>
</defs>
</svg>
